# WaveFront *.obj file (generated by Autodesk ATF)

mtllib aruco.mtl

g Volumenkörper1

v -100.000000 -9.800000 120.000000
v -100.000000 -9.800000 170.000000
v -100.000000 9.800000 120.000000
v -100.000000 9.800000 170.000000
v -34.800000 -9.800000 0.000000
v -34.800000 -9.800000 120.000000
v -34.800000 9.800000 0.000000
v -34.800000 9.800000 120.000000
v 34.800000 -9.800000 0.000000
v 34.800000 -9.800000 120.000000
v 34.800000 9.800000 0.000000
v 34.800000 9.800000 120.000000
v 100.000000 -9.800000 120.000000
v 100.000000 -9.800000 170.000000
v 100.000000 9.800000 120.000000
v 100.000000 9.800000 170.000000
vt 0.020000 0.000000 0.000000
vt 6.980000 0.000000 0.000000
vt 6.980000 12.000000 0.000000
vt 13.500000 12.000000 0.000000
vt 13.500000 17.000000 0.000000
vt -6.500000 17.000000 0.000000
vt -6.500000 12.000000 0.000000
vt 0.020000 12.000000 0.000000
vt 0.020000 0.000000 0.000000
vt 1.980000 0.000000 0.000000
vt 1.980000 12.000000 0.000000
vt 0.020000 12.000000 0.000000
vt 0.020000 0.000000 0.000000
vt 6.980000 0.000000 0.000000
vt 6.980000 12.000000 0.000000
vt 13.500000 12.000000 0.000000
vt 13.500000 17.000000 0.000000
vt -6.500000 17.000000 0.000000
vt -6.500000 12.000000 0.000000
vt 0.020000 12.000000 0.000000
vt 0.020000 0.000000 0.000000
vt 1.980000 0.000000 0.000000
vt 1.980000 12.000000 0.000000
vt 0.020000 12.000000 0.000000
vt 1.980000 -10.000000 0.000000
vt 1.980000 -3.480000 0.000000
vt 0.020000 -3.480000 0.000000
vt 0.020000 -10.000000 0.000000
vt 1.980000 3.480000 0.000000
vt 1.980000 10.000000 0.000000
vt 0.020000 10.000000 0.000000
vt 0.020000 3.480000 0.000000
vt 2.500000 0.980000 0.000000
vt -2.500000 0.980000 0.000000
vt -2.500000 -0.980000 0.000000
vt 2.500000 -0.980000 0.000000
vt 0.020000 10.000000 0.000000
vt 0.020000 -10.000000 0.000000
vt 1.980000 -10.000000 0.000000
vt 1.980000 10.000000 0.000000
vt 2.500000 0.980000 0.000000
vt -2.500000 0.980000 0.000000
vt -2.500000 -0.980000 0.000000
vt 2.500000 -0.980000 0.000000
vt -3.480000 -0.980000 0.000000
vt 3.480000 -0.980000 0.000000
vt 3.480000 0.980000 0.000000
vt -3.480000 0.980000 0.000000
vn 0.000000 -0.100000 0.000000
vn 0.000000 -0.100000 0.000000
vn 0.000000 -0.100000 0.000000
vn 0.000000 -0.100000 0.000000
vn 0.000000 -0.100000 0.000000
vn 0.000000 -0.100000 0.000000
vn 0.000000 -0.100000 0.000000
vn 0.000000 -0.100000 0.000000
vn -0.100000 0.000000 0.000000
vn -0.100000 0.000000 0.000000
vn -0.100000 0.000000 0.000000
vn -0.100000 0.000000 0.000000
vn 0.000000 0.100000 0.000000
vn 0.000000 0.100000 0.000000
vn 0.000000 0.100000 0.000000
vn 0.000000 0.100000 0.000000
vn 0.000000 0.100000 0.000000
vn 0.000000 0.100000 0.000000
vn 0.000000 0.100000 0.000000
vn 0.000000 0.100000 0.000000
vn 0.100000 0.000000 0.000000
vn 0.100000 0.000000 0.000000
vn 0.100000 0.000000 0.000000
vn 0.100000 0.000000 0.000000
vn 0.000000 0.000000 -0.100000
vn 0.000000 0.000000 -0.100000
vn 0.000000 0.000000 -0.100000
vn 0.000000 0.000000 -0.100000
vn 0.000000 0.000000 -0.100000
vn 0.000000 0.000000 -0.100000
vn 0.000000 0.000000 -0.100000
vn 0.000000 0.000000 -0.100000
vn -0.100000 0.000000 0.000000
vn -0.100000 0.000000 0.000000
vn -0.100000 0.000000 0.000000
vn -0.100000 0.000000 0.000000
vn 0.000000 0.000000 0.100000
vn 0.000000 0.000000 0.100000
vn 0.000000 0.000000 0.100000
vn 0.000000 0.000000 0.100000
vn 0.100000 0.000000 0.000000
vn 0.100000 0.000000 0.000000
vn 0.100000 0.000000 0.000000
vn 0.100000 0.000000 0.000000
vn 0.000000 0.000000 -0.100000
vn 0.000000 0.000000 -0.100000
vn 0.000000 0.000000 -0.100000
vn 0.000000 0.000000 -0.100000
usemtl 191,191,191
f 5/1/1 9/2/2 6/8/8
f 6/8/8 9/2/2 10/3/3
f 6/8/8 10/3/3 2/6/6
f 2/6/6 10/3/3 14/5/5
f 14/5/5 10/3/3 13/4/4
f 2/6/6 1/7/7 6/8/8
f 7/9/9 5/10/10 8/12/12
f 8/12/12 5/10/10 6/11/11
f 11/13/13 7/14/14 12/20/20
f 12/20/20 7/14/14 8/15/15
f 12/20/20 8/15/15 16/18/18
f 16/18/18 8/15/15 4/17/17
f 4/17/17 8/15/15 3/16/16
f 16/18/18 15/19/19 12/20/20
f 9/21/21 11/22/22 10/24/24
f 10/24/24 11/22/22 12/23/23
f 8/26/26 6/27/27 3/25/25
f 3/25/25 6/27/27 1/28/28
f 15/30/30 13/31/31 12/29/29
f 12/29/29 13/31/31 10/32/32
f 4/33/33 3/34/34 2/36/36
f 2/36/36 3/34/34 1/35/35
f 4/38/38 2/39/39 16/37/37
f 16/37/37 2/39/39 14/40/40
f 15/41/41 16/42/42 13/44/44
f 13/44/44 16/42/42 14/43/43
f 9/45/45 5/46/46 11/48/48
f 11/48/48 5/46/46 7/47/47
# 16 vertices
# 48 texture params
# 48 normals
# 28 facets

# 1 groups
